<svg xmlns="http://www.w3.org/2000/svg" width="1223.854" height="601" viewBox="0 0 1223.854 601">
  <g id="Design_process_-_web" data-name="Design process - web" transform="translate(-188.38 -1298)">
    <g id="Group_1098" data-name="Group 1098" transform="translate(-105 -25)">
      <text id="Deliver" transform="translate(1325.251 1777)" fill="#707070" font-size="16" font-family="SofiaPro-Bold, Sofia Pro" font-weight="700"><tspan x="0" y="0">Deliver</tspan></text>
      <g id="icon_deliver" transform="translate(1324.918 1703)">
        <g id="icon_backend">
          <path id="Path_42" data-name="Path 42" d="M46.352,40.529H6.688A1.688,1.688,0,0,1,5,38.841V10.688A1.688,1.688,0,0,1,6.688,9H46.352a1.688,1.688,0,0,1,1.688,1.688V38.841a1.688,1.688,0,0,1-1.688,1.688ZM6.688,10.688V38.841H46.352V10.688Z" transform="translate(-5 -9)" fill="#999b9d"/>
          <path id="Path_43" data-name="Path 43" d="M30.344,50.647A.844.844,0,0,1,29.5,49.8V45.2a.844.844,0,0,1,1.688,0v4.59a.844.844,0,0,1-.844.854Z" transform="translate(-8.824 -14.519)" fill="#999b9d"/>
          <path id="Path_44" data-name="Path 44" d="M34.086,51.5H24.9a.844.844,0,0,1,0-1.688h9.182a.844.844,0,0,1,0,1.688Z" transform="translate(-7.975 -15.37)" fill="#999b9d"/>
        </g>
        <g id="Group_1" data-name="Group 1" transform="translate(29.864 2.876)">
          <rect id="Rectangle_1" data-name="Rectangle 1" width="18.035" height="35.122" transform="translate(0.835 0.209)" fill="#fff"/>
          <g id="icon_mobile_IOS" transform="translate(0 0)">
            <path id="Path_37" data-name="Path 37" d="M47.947,56.111H32.018a1.9,1.9,0,0,1-1.9-1.9V22.678a1.9,1.9,0,0,1,1.9-1.9H47.947a1.9,1.9,0,0,1,1.9,1.9V54.212A1.9,1.9,0,0,1,47.947,56.111ZM32.018,22.678V54.212H47.947V22.678Z" transform="translate(-30.12 -20.78)" fill="#627ef4"/>
            <path id="Path_38" data-name="Path 38" d="M41.269,26.348h-1.12a.949.949,0,0,1,0-1.9H41.26a.949.949,0,0,1,0,1.9Z" transform="translate(-30.581 -20.966)" fill="#999b9d"/>
            <path id="Path_39" data-name="Path 39" d="M41.51,54.528H39.289a.949.949,0,0,1,0-1.9H41.52a.949.949,0,1,1,0,1.9Z" transform="translate(-30.537 -22.397)" fill="#999b9d"/>
            <path id="Path_40" data-name="Path 40" d="M48.9,50.9H31.069a.949.949,0,1,1,0-1.9H48.9a.949.949,0,0,1,0,1.9Z" transform="translate(-30.12 -22.213)" fill="#627ef4"/>
            <path id="Path_41" data-name="Path 41" d="M48.9,29.728H31.069a.949.949,0,1,1,0-1.9H48.9a.949.949,0,0,1,0,1.9Z" transform="translate(-30.12 -21.138)" fill="#627ef4"/>
          </g>
        </g>
      </g>
      <text id="Research" transform="translate(1241 1794)" fill="#707070" font-size="16" font-family="SofiaPro-Regular, Sofia Pro"><tspan x="20.916" y="16">Final development and </tspan><tspan x="14.588" y="40">design handoff, constant </tspan><tspan x="25.98" y="64">testing. Maintenance. </tspan><tspan x="29.9" y="88">Future development.</tspan></text>
    </g>
    <g id="Group_1096" data-name="Group 1096" transform="translate(-62.859 -20)">
      <g id="icon_research" transform="translate(566.189 1698)">
        <path id="Path_19" data-name="Path 19" d="M51.961,54.583H16.839a.949.949,0,0,1-.949-.949V18.189a.949.949,0,0,1,.949-.949h35.4a.949.949,0,0,1,.949.949L52.91,53.634A.949.949,0,0,1,51.961,54.583Zm-34.172-1.9H51.031L51.3,19.138H17.788Z" transform="translate(-4.774 -6.134)" fill="#999b9d"/>
        <path id="Path_20" data-name="Path 20" d="M9.989,42.835H5.129a.949.949,0,0,1-.949-.949V6.489a.949.949,0,0,1,.949-.949H40.536a.949.949,0,0,1,.949.949v7.679a.949.949,0,1,1-1.9,0V7.438H6.078v33.5H9.989a.949.949,0,1,1,0,1.9Z" transform="translate(-4.18 -5.54)" fill="#627ef4"/>
      </g>
      <text id="Research-2" data-name="Research" transform="translate(562.859 1777)" fill="#707070" font-size="16" font-family="SofiaPro-Bold, Sofia Pro" font-weight="700"><tspan x="0" y="0">Research</tspan></text>
      <text id="Research-3" data-name="Research" transform="translate(492.859 1789)" fill="#707070" font-size="16" font-family="SofiaPro-Regular, Sofia Pro"><tspan x="6.916" y="16">Finding and naming all the </tspan><tspan x="9.748" y="40">problems and pain points.</tspan><tspan x="21.212" y="64">Checking out available </tspan><tspan x="32.812" y="88">solutions and ideas, </tspan><tspan x="25.628" y="112">competitors research.</tspan></text>
    </g>
    <g id="Group_1093" data-name="Group 1093" transform="translate(-32.859 23)">
      <g id="icon_define" transform="translate(372.478 1275)">
        <path id="Path_19-2" data-name="Path 19" d="M51.961,54.583H16.839a.949.949,0,0,1-.949-.949V18.189a.949.949,0,0,1,.949-.949h35.4a.949.949,0,0,1,.949.949L52.91,53.634A.949.949,0,0,1,51.961,54.583Zm-34.172-1.9H51.031L51.3,19.138H17.788Z" transform="translate(-4.774 -6.134)" fill="#627ef4"/>
        <path id="Path_20-2" data-name="Path 20" d="M9.989,42.835H5.129a.949.949,0,0,1-.949-.949V6.489a.949.949,0,0,1,.949-.949H40.536a.949.949,0,0,1,.949.949v7.679a.949.949,0,1,1-1.9,0V7.438H6.078v33.5H9.989a.949.949,0,1,1,0,1.9Z" transform="translate(-4.18 -5.54)" fill="#999b9d"/>
        <path id="Path_21" data-name="Path 21" d="M25.257,30.532a.712.712,0,0,1-.532-.237l-2.316-2.6a.713.713,0,1,1,1.063-.949l1.785,2.031,3.5-3.939a.713.713,0,1,1,1.063.949l-4.015,4.509A.712.712,0,0,1,25.257,30.532Z" transform="translate(-5.096 -6.507)" fill="#627ef4"/>
        <path id="Path_22" data-name="Path 22" d="M25.257,39.95a.712.712,0,0,1-.532-.237l-2.316-2.6a.713.713,0,1,1,1.063-.949l1.785,2,3.5-3.939a.713.713,0,1,1,1.063.949l-4.015,4.518a.712.712,0,0,1-.551.256Z" transform="translate(-5.096 -6.983)" fill="#627ef4"/>
        <path id="Path_23" data-name="Path 23" d="M47.26,28.384H34.132a.712.712,0,0,1,0-1.424H47.26a.712.712,0,1,1,0,1.424Z" transform="translate(-5.664 -6.627)" fill="#627ef4"/>
        <path id="Path_24" data-name="Path 24" d="M47.26,38.554H34.132a.712.712,0,0,1,0-1.424H47.26a.712.712,0,1,1,0,1.424Z" transform="translate(-5.664 -7.144)" fill="#627ef4"/>
        <path id="Path_25" data-name="Path 25" d="M47.26,48.414H34.132a.712.712,0,0,1,0-1.424H47.26a.712.712,0,0,1,0,1.424Z" transform="translate(-5.664 -7.644)" fill="#627ef4"/>
        <path id="Path_26" data-name="Path 26" d="M25.257,49.551a.712.712,0,0,1-.532-.237l-2.316-2.6a.713.713,0,1,1,1.063-.949l1.785,2.012,3.5-3.939a.713.713,0,1,1,1.063.949l-4.015,4.528A.712.712,0,0,1,25.257,49.551Z" transform="translate(-5.096 -7.471)" fill="#627ef4"/>
      </g>
      <text id="Research-4" data-name="Research" transform="translate(291.859 1368)" fill="#707070" font-size="16" font-family="SofiaPro-Regular, Sofia Pro"><tspan x="5.508" y="16" xml:space="preserve">Familiarizing with  business </tspan><tspan x="7.3" y="40">and product requirements. </tspan><tspan x="24.252" y="64">Establishing workflow. </tspan><tspan x="29.42" y="88">Empathize with user.</tspan></text>
      <text id="Define" transform="translate(368.824 1357)" fill="#707070" font-size="16" font-family="SofiaPro-Bold, Sofia Pro" font-weight="700"><tspan x="0" y="0">Define</tspan></text>
    </g>
    <g id="Group_1094" data-name="Group 1094" transform="translate(-64.859 22)">
      <g id="icon_design" transform="translate(757.274 1276)">
        <path id="Path_2" data-name="Path 2" d="M9.368,12.235a2.848,2.848,0,1,1,2.848-2.848A2.848,2.848,0,0,1,9.368,12.235Zm0-3.8a.4.4,0,1,0,0-.038Z" transform="translate(-6.52 -6.502)" fill="#999b9d"/>
        <path id="Path_3" data-name="Path 3" d="M27.807,10.418H11.489a.949.949,0,0,1,0-1.9H27.807a.949.949,0,0,1,0,1.9Z" transform="translate(-6.724 -6.603)" fill="#999b9d"/>
        <path id="Path_4" data-name="Path 4" d="M51.848,12.235A2.848,2.848,0,1,1,54.7,9.388,2.848,2.848,0,0,1,51.848,12.235Zm0-3.8a.4.4,0,1,0,0-.038Z" transform="translate(-8.676 -6.502)" fill="#999b9d"/>
        <path id="Path_5" data-name="Path 5" d="M49.093,10.418H33.079a.949.949,0,1,1,0-1.9H49.093a.949.949,0,1,1,0,1.9Z" transform="translate(-7.82 -6.603)" fill="#999b9d"/>
        <path id="Path_6" data-name="Path 6" d="M51.607,25.694h-.949A21.016,21.016,0,0,0,32.8,8.607V7.449a.949.949,0,0,0-.949-.949h-3.8a.949.949,0,0,0-.949.949V8.617A21.016,21.016,0,0,0,9.253,25.7H7.819a.949.949,0,0,0-.949.949v3.8a.949.949,0,0,0,.949.949h3.8a.949.949,0,0,0,.949-.949v-3.8a.949.949,0,0,0-.949-.949h-.57A19.127,19.127,0,0,1,26.975,10.515v.75a.949.949,0,0,0,.949.949h3.8a.949.949,0,0,0,.949-.949v-.75A19.127,19.127,0,0,1,48.6,25.7h-.788a.949.949,0,0,0-.949.949v3.8a.949.949,0,0,0,.949.949h3.8a.949.949,0,0,0,.949-.949v-3.8a.949.949,0,0,0-.949-.959Zm-40.893,3.8h-1.9v-1.9h1.9ZM30.857,10.335h-1.9v-1.9h1.9Zm19.8,19.194h-1.9v-1.9h1.9Z" transform="translate(-6.538 -6.5)" fill="#627ef4"/>
        <path id="Path_8" data-name="Path 8" d="M37.2,41.453H35.98a4.813,4.813,0,0,1,4.746-3.863.949.949,0,0,0,.845-1.376l-10.593-21.1a.949.949,0,0,0-1.7,0L18.732,36.223a.949.949,0,0,0,.845,1.376,4.813,4.813,0,0,1,4.746,3.863H23.07a2.848,2.848,0,0,0-2.848,2.307l-1.614,8.05a.949.949,0,0,0,.949,1.139h21.13a.949.949,0,0,0,.949-1.139l-1.614-8.05A2.848,2.848,0,0,0,37.2,41.453Zm-16.137-5.6,9.1-18.2,9.075,18.206a6.711,6.711,0,0,0-5.164,5.6H26.2a6.711,6.711,0,0,0-5.173-5.6ZM20.764,51.04l1.386-6.92a.949.949,0,0,1,.949-.778H37.2a.949.949,0,0,1,.949.778L39.53,51.05Z" transform="translate(-7.133 -6.91)" fill="#999b9d"/>
        <g id="Ellipse_3014" data-name="Ellipse 3014" transform="translate(18.585 20)" fill="#fff" stroke="#999b9d" stroke-width="2">
          <circle cx="4.5" cy="4.5" r="4.5" stroke="none"/>
          <circle cx="4.5" cy="4.5" r="3.5" fill="none"/>
        </g>
      </g>
      <text id="Research-5" data-name="Research" transform="translate(654.859 1369)" fill="#707070" font-size="16" font-family="SofiaPro-Regular, Sofia Pro"><tspan x="37.028" y="16">Sketching, wireframing, </tspan><tspan x="34.14" y="40">prototyping. Style guide. </tspan><tspan x="11.652" y="64">design + dev + product owners </tspan><tspan x="56.988" y="88">+ testers meetings</tspan></text>
      <text id="Design" transform="translate(752.139 1357)" fill="#707070" font-size="16" font-family="SofiaPro-Bold, Sofia Pro" font-weight="700"><tspan x="0" y="0">Design</tspan></text>
    </g>
    <g id="Group_1095" data-name="Group 1095" transform="translate(-115.859 21)">
      <g id="icon_developing" transform="translate(1151.325 1277)">
        <path id="Path_27" data-name="Path 27" d="M43.977,50.417H4.469A1.9,1.9,0,0,1,2.9,49.592a1.842,1.842,0,0,1-.18-1.728L6.263,40.08a.949.949,0,0,1,1.728.788L4.507,48.519H43.939l-3.484-7.651a.949.949,0,1,1,1.728-.788l3.512,7.746a1.863,1.863,0,0,1-1.718,2.591Z" transform="translate(-2.586 -6.515)" fill="#999b9d"/>
        <path id="Path_28" data-name="Path 28" d="M31.277,50.707a.949.949,0,0,1-.854-.522L28.9,47.109H21.082l-1.538,3.076a.949.949,0,0,1-1.7-.845l1.8-3.6a.949.949,0,0,1,.845-.522h9a.949.949,0,0,1,.845.522l1.8,3.6a.949.949,0,0,1-.864,1.367Z" transform="translate(-3.357 -6.804)" fill="#999b9d"/>
        <path id="Path_29" data-name="Path 29" d="M57,36.064a.949.949,0,0,1-.674-.275l-9.872-9.872A.949.949,0,0,1,47.8,24.578l9.882,9.882A.949.949,0,0,1,57,36.083Z" transform="translate(-4.802 -5.745)" fill="#999b9d"/>
        <path id="Path_30" data-name="Path 30" d="M41.5,40.264H7.329a.949.949,0,0,1-.949-.949V18.963A2.183,2.183,0,0,1,8.563,16.78H27.852a.949.949,0,0,1,.949.864,9.492,9.492,0,0,0,9.492,8.714h0a9.492,9.492,0,0,0,2.9-.456.949.949,0,0,1,1.234.911v12.5A.949.949,0,0,1,41.5,40.264Zm-33.223-1.9H40.552V28.038a12,12,0,0,1-2.269.218h0a11.391,11.391,0,0,1-11.258-9.578H8.563a.285.285,0,0,0-.285.285Z" transform="translate(-2.779 -5.361)" fill="#999b9d"/>
        <path id="Path_31" data-name="Path 31" d="M39.388,27.646h0a11.448,11.448,0,0,1,0-22.9h0a11.448,11.448,0,1,1,0,22.9Zm0-21a9.549,9.549,0,0,0,0,19.1h0a9.549,9.549,0,0,0,9.549-9.493h0a9.549,9.549,0,0,0-9.492-9.568Z" transform="translate(-3.873 -4.75)" fill="#627ef4"/>
        <path id="Path_32" data-name="Path 32" d="M31.532,17.035h0a.712.712,0,0,1-.712-.712A8.752,8.752,0,0,1,39.534,7.6a.721.721,0,0,1,.731.712.712.712,0,0,1-.731.712h0a7.328,7.328,0,0,0-7.319,7.3.712.712,0,0,1-.683.712Z" transform="translate(-4.02 -4.895)" fill="#627ef4"/>
      </g>
      <text id="Research-6" data-name="Research" transform="translate(1054.859 1370)" fill="#707070" font-size="16" font-family="SofiaPro-Regular, Sofia Pro"><tspan x="4.484" y="16">Implementation of design by dev </tspan><tspan x="17.244" y="40">team. Close cooperation with </tspan><tspan x="7.452" y="64">tech experts. Checking solutions </tspan><tspan x="24.996" y="88">by test team. Amendments.</tspan></text>
      <text id="Develop" transform="translate(1104.304 1357)" fill="#707070" font-size="16" font-family="SofiaPro-Bold, Sofia Pro" font-weight="700"><tspan x="0" y="0">Developing and test</tspan></text>
    </g>
    <g id="Group_1097" data-name="Group 1097" transform="translate(-97 -20)">
      <g id="icon_present_and_evaluate" data-name="icon_present and evaluate" transform="translate(956 1698)">
        <path id="Path_9" data-name="Path 9" d="M48.039,27.494a.949.949,0,0,1-.873-1.319l6.863-16.137a.949.949,0,0,1,1.775.674v.066L48.9,26.915A.949.949,0,0,1,48.039,27.494Z" transform="translate(-5.798 -4.883)" fill="#627ef4"/>
        <path id="Path_10" data-name="Path 10" d="M43.6,29.392h-.275L25.294,24a.951.951,0,0,1,.541-1.823L43.87,27.57a.959.959,0,1,1-.275,1.9Z" transform="translate(-4.657 -5.528)" fill="#627ef4"/>
        <path id="Path_11" data-name="Path 11" d="M13.71,43.476a1.072,1.072,0,0,1-.3,0L8.793,41.89A.949.949,0,0,1,9.4,40.115l3.8,1.262L20.848,24.14a.95.95,0,1,1,1.737.769l-8,18.054A.949.949,0,0,1,13.71,43.476Z" transform="translate(-3.828 -5.601)" fill="#627ef4"/>
        <path id="Path_12" data-name="Path 12" d="M6.77,44.2a3.18,3.18,0,1,1,3.18-3.18h0A3.18,3.18,0,0,1,6.77,44.2Zm0-4.461a1.272,1.272,0,1,0,.907.38A1.272,1.272,0,0,0,6.77,39.738Z" transform="translate(-3.59 -6.325)" fill="#627ef4"/>
        <path id="Path_13" data-name="Path 13" d="M23.03,25.3a3.18,3.18,0,1,1,3.18-3.18,3.18,3.18,0,0,1-3.18,3.18Zm0-4.461a1.253,1.253,0,1,1,0,.057Z" transform="translate(-4.415 -5.366)" fill="#627ef4"/>
        <path id="Path_14" data-name="Path 14" d="M46.92,32.88A3.18,3.18,0,1,1,50.1,29.7h0A3.18,3.18,0,0,1,46.92,32.88Zm0-4.461A1.281,1.281,0,1,0,48.2,29.7h0a1.281,1.281,0,0,0-1.281-1.272Z" transform="translate(-5.628 -5.751)" fill="#627ef4"/>
        <path id="Path_15" data-name="Path 15" d="M56.07,11a3.18,3.18,0,1,1,3.18-3.17h0A3.18,3.18,0,0,1,56.07,11Zm0-4.461a1.281,1.281,0,1,0,1.281,1.291h0A1.281,1.281,0,0,0,56.07,6.576Z" transform="translate(-6.093 -4.64)" fill="#627ef4"/>
        <path id="Path_16" data-name="Path 16" d="M52.538,55.346a3.8,3.8,0,0,1-2.667-1.1l-9.929-9.967a3.8,3.8,0,0,1,0-5.335,3.854,3.854,0,0,1,5.325,0l9.967,9.967a3.8,3.8,0,0,1,0,5.325h0A3.8,3.8,0,0,1,52.538,55.346Zm-9.967-15.6a1.9,1.9,0,0,0-1.823,1.965,1.842,1.842,0,0,0,.5,1.225l9.967,9.967a1.9,1.9,0,0,0,2.639,0h0a1.9,1.9,0,0,0,0-2.639L43.89,40.3A1.9,1.9,0,0,0,42.571,39.75Z" transform="translate(-5.38 -6.327)" fill="#999b9d"/>
        <path id="Path_17" data-name="Path 17" d="M22.58,38.08h0A16.659,16.659,0,0,1,5.94,21.487a16.365,16.365,0,0,1,4.8-11.695,16.564,16.564,0,0,1,23.408.066h0a16.507,16.507,0,0,1-11.5,28.221ZM22.39,6.9a14.647,14.647,0,0,0,.142,29.293h0A14.542,14.542,0,0,0,37.141,21.715v-.142A14.751,14.751,0,0,0,22.39,6.9Z" transform="translate(-3.709 -4.657)" fill="#999b9d"/>
        <path id="Path_18" data-name="Path 18" d="M40.334,40.334a.949.949,0,0,1-.674-.275l-5.373-5.373a.949.949,0,0,1,1.338-1.338L41.008,38.7a.954.954,0,0,1-.683,1.623Z" transform="translate(-5.137 -6.086)" fill="#999b9d"/>
      </g>
      <text id="Research-7" data-name="Research" transform="translate(878 1789)" fill="#707070" font-size="16" font-family="SofiaPro-Regular, Sofia Pro"><tspan x="20.204" y="16">Team presentation and </tspan><tspan x="6.604" y="40">critique. Designs iterations. </tspan><tspan x="1.5" y="64">Consultations. Amendments.</tspan></text>
      <g id="Group" transform="translate(944.918 1761)">
        <text id="Present_and_evaluate" data-name="Present and evaluate" transform="translate(-46.918 16)" fill="#707070" font-size="16" font-family="SofiaPro-Bold, Sofia Pro" font-weight="700"><tspan x="0" y="0">Present and evaluate</tspan></text>
      </g>
    </g>
    <g id="Design_process_-_web_-_line" data-name="Design process - web - line">
      <path id="Path_2203" data-name="Path 2203" d="M-131.243-128.257c10.9,1.314,21.222-.474,31.386-3.635,21.752-6.763,38.8-20.429,54-36.844C-35.23-180.222-24.746-191.858-13.766-203c32.1-32.581,86.209-29.113,113.112-1.029,11.47,11.974,22.7,24.179,34.136,36.185,15.381,16.146,32.281,30.451,54.334,36.173,30.316,7.867,59.494,5.623,86.784-11.717,17.748-11.277,30.7-27.289,44.974-42.118,9.494-9.863,19.058-20.081,30.181-27.864,29.221-20.446,73.04-16.5,98.548,8.318,16.805,16.35,31.933,34.486,49.277,50.205,31.908,28.919,69.308,34.359,109.373,20.534,22.644-7.814,38.92-24.762,54.595-42.162,8.872-9.847,18-19.508,27.545-28.7,29.03-27.955,79.493-28.378,108.735-.454,14.9,14.227,28.3,30.008,42.885,44.575,33.1,33.054,72.291,41.829,116.3,26.762,21.668-7.418,37.527-23.373,52.721-39.964,11.339-12.383,22.428-25.341,35.454-35.759a77.057,77.057,0,0,1,47.292-16.543" transform="translate(319.743 1753.558)" fill="#fff" stroke="#e8e8e8" stroke-width="2"/>
      <g id="Ellipse_5" data-name="Ellipse 5" transform="translate(1230 1615)" fill="#fff" stroke="#e8e8e8" stroke-width="2">
        <ellipse cx="11" cy="11.5" rx="11" ry="11.5" stroke="none"/>
        <ellipse cx="11" cy="11.5" rx="10" ry="10.5" fill="none"/>
      </g>
      <g id="Ellipse_2" data-name="Ellipse 2" transform="translate(523 1615)" fill="#fff" stroke="#e8e8e8" stroke-width="2">
        <circle cx="11.5" cy="11.5" r="11.5" stroke="none"/>
        <circle cx="11.5" cy="11.5" r="10.5" fill="none"/>
      </g>
      <g id="Ellipse_1" data-name="Ellipse 1" transform="translate(352 1516)" fill="#fff" stroke="#e8e8e8" stroke-width="2">
        <ellipse cx="11" cy="11.5" rx="11" ry="11.5" stroke="none"/>
        <ellipse cx="11" cy="11.5" rx="10" ry="10.5" fill="none"/>
      </g>
      <g id="Ellipse_4" data-name="Ellipse 4" transform="translate(701 1516)" fill="#fff" stroke="#e8e8e8" stroke-width="2">
        <circle cx="11.5" cy="11.5" r="11.5" stroke="none"/>
        <circle cx="11.5" cy="11.5" r="10.5" fill="none"/>
      </g>
      <g id="Ellipse_6" data-name="Ellipse 6" transform="translate(1051 1516)" fill="#fff" stroke="#e8e8e8" stroke-width="2">
        <circle cx="11.5" cy="11.5" r="11.5" stroke="none"/>
        <circle cx="11.5" cy="11.5" r="10.5" fill="none"/>
      </g>
      <g id="Ellipse_3" data-name="Ellipse 3" transform="translate(874 1615)" fill="#fff" stroke="#e8e8e8" stroke-width="2">
        <circle cx="11.5" cy="11.5" r="11.5" stroke="none"/>
        <circle cx="11.5" cy="11.5" r="10.5" fill="none"/>
      </g>
    </g>
  </g>
</svg>
