<svg id="icon_design" xmlns="http://www.w3.org/2000/svg" width="46.019" height="46.048" viewBox="0 0 46.019 46.048">
  <path id="Path_2" data-name="Path 2" d="M9.368,12.235a2.848,2.848,0,1,1,2.848-2.848A2.848,2.848,0,0,1,9.368,12.235Zm0-3.8a.4.4,0,1,0,0-.038Z" transform="translate(-6.52 -6.502)" fill="#999b9d"/>
  <path id="Path_3" data-name="Path 3" d="M27.807,10.418H11.489a.949.949,0,0,1,0-1.9H27.807a.949.949,0,0,1,0,1.9Z" transform="translate(-6.724 -6.603)" fill="#999b9d"/>
  <path id="Path_4" data-name="Path 4" d="M51.848,12.235A2.848,2.848,0,1,1,54.7,9.388,2.848,2.848,0,0,1,51.848,12.235Zm0-3.8a.4.4,0,1,0,0-.038Z" transform="translate(-8.676 -6.502)" fill="#999b9d"/>
  <path id="Path_5" data-name="Path 5" d="M49.093,10.418H33.079a.949.949,0,1,1,0-1.9H49.093a.949.949,0,1,1,0,1.9Z" transform="translate(-7.82 -6.603)" fill="#999b9d"/>
  <path id="Path_6" data-name="Path 6" d="M51.607,25.694h-.949A21.016,21.016,0,0,0,32.8,8.607V7.449a.949.949,0,0,0-.949-.949h-3.8a.949.949,0,0,0-.949.949V8.617A21.016,21.016,0,0,0,9.253,25.7H7.819a.949.949,0,0,0-.949.949v3.8a.949.949,0,0,0,.949.949h3.8a.949.949,0,0,0,.949-.949v-3.8a.949.949,0,0,0-.949-.949h-.57A19.127,19.127,0,0,1,26.975,10.515v.75a.949.949,0,0,0,.949.949h3.8a.949.949,0,0,0,.949-.949v-.75A19.127,19.127,0,0,1,48.6,25.7h-.788a.949.949,0,0,0-.949.949v3.8a.949.949,0,0,0,.949.949h3.8a.949.949,0,0,0,.949-.949v-3.8a.949.949,0,0,0-.949-.959Zm-40.893,3.8h-1.9v-1.9h1.9ZM30.857,10.335h-1.9v-1.9h1.9Zm19.8,19.194h-1.9v-1.9h1.9Z" transform="translate(-6.538 -6.5)" fill="#627ef4"/>
  <path id="Path_8" data-name="Path 8" d="M37.2,41.453H35.98a4.813,4.813,0,0,1,4.746-3.863.949.949,0,0,0,.845-1.376l-10.593-21.1a.949.949,0,0,0-1.7,0L18.732,36.223a.949.949,0,0,0,.845,1.376,4.813,4.813,0,0,1,4.746,3.863H23.07a2.848,2.848,0,0,0-2.848,2.307l-1.614,8.05a.949.949,0,0,0,.949,1.139h21.13a.949.949,0,0,0,.949-1.139l-1.614-8.05A2.848,2.848,0,0,0,37.2,41.453Zm-16.137-5.6,9.1-18.2,9.075,18.206a6.711,6.711,0,0,0-5.164,5.6H26.2a6.711,6.711,0,0,0-5.173-5.6ZM20.764,51.04l1.386-6.92a.949.949,0,0,1,.949-.778H37.2a.949.949,0,0,1,.949.778L39.53,51.05Z" transform="translate(-7.133 -6.91)" fill="#999b9d"/>
  <g id="Ellipse_3014" data-name="Ellipse 3014" transform="translate(18.585 20)" fill="#fff" stroke="#999b9d" stroke-width="2">
    <circle cx="4.5" cy="4.5" r="4.5" stroke="none"/>
    <circle cx="4.5" cy="4.5" r="3.5" fill="none"/>
  </g>
</svg>
