<svg id="icon_define" xmlns="http://www.w3.org/2000/svg" width="48.411" height="48.449" viewBox="0 0 48.411 48.449">
  <path id="Path_19" data-name="Path 19" d="M51.961,54.583H16.839a.949.949,0,0,1-.949-.949V18.189a.949.949,0,0,1,.949-.949h35.4a.949.949,0,0,1,.949.949L52.91,53.634A.949.949,0,0,1,51.961,54.583Zm-34.172-1.9H51.031L51.3,19.138H17.788Z" transform="translate(-4.774 -6.134)" fill="#627ef4"/>
  <path id="Path_20" data-name="Path 20" d="M9.989,42.835H5.129a.949.949,0,0,1-.949-.949V6.489a.949.949,0,0,1,.949-.949H40.536a.949.949,0,0,1,.949.949v7.679a.949.949,0,1,1-1.9,0V7.438H6.078v33.5H9.989a.949.949,0,1,1,0,1.9Z" transform="translate(-4.18 -5.54)" fill="#999b9d"/>
  <path id="Path_21" data-name="Path 21" d="M25.257,30.532a.712.712,0,0,1-.532-.237l-2.316-2.6a.713.713,0,1,1,1.063-.949l1.785,2.031,3.5-3.939a.713.713,0,1,1,1.063.949l-4.015,4.509A.712.712,0,0,1,25.257,30.532Z" transform="translate(-5.096 -6.507)" fill="#627ef4"/>
  <path id="Path_22" data-name="Path 22" d="M25.257,39.95a.712.712,0,0,1-.532-.237l-2.316-2.6a.713.713,0,1,1,1.063-.949l1.785,2,3.5-3.939a.713.713,0,1,1,1.063.949l-4.015,4.518a.712.712,0,0,1-.551.256Z" transform="translate(-5.096 -6.983)" fill="#627ef4"/>
  <path id="Path_23" data-name="Path 23" d="M47.26,28.384H34.132a.712.712,0,0,1,0-1.424H47.26a.712.712,0,1,1,0,1.424Z" transform="translate(-5.664 -6.627)" fill="#627ef4"/>
  <path id="Path_24" data-name="Path 24" d="M47.26,38.554H34.132a.712.712,0,0,1,0-1.424H47.26a.712.712,0,1,1,0,1.424Z" transform="translate(-5.664 -7.144)" fill="#627ef4"/>
  <path id="Path_25" data-name="Path 25" d="M47.26,48.414H34.132a.712.712,0,0,1,0-1.424H47.26a.712.712,0,0,1,0,1.424Z" transform="translate(-5.664 -7.644)" fill="#627ef4"/>
  <path id="Path_26" data-name="Path 26" d="M25.257,49.551a.712.712,0,0,1-.532-.237l-2.316-2.6a.713.713,0,1,1,1.063-.949l1.785,2.012,3.5-3.939a.713.713,0,1,1,1.063.949l-4.015,4.528A.712.712,0,0,1,25.257,49.551Z" transform="translate(-5.096 -7.471)" fill="#627ef4"/>
</svg>
