<svg id="icon_developing" xmlns="http://www.w3.org/2000/svg" width="53.157" height="43.902" viewBox="0 0 53.157 43.902">
  <path id="Path_27" data-name="Path 27" d="M43.977,50.417H4.469A1.9,1.9,0,0,1,2.9,49.592a1.842,1.842,0,0,1-.18-1.728L6.263,40.08a.949.949,0,0,1,1.728.788L4.507,48.519H43.939l-3.484-7.651a.949.949,0,1,1,1.728-.788l3.512,7.746a1.863,1.863,0,0,1-1.718,2.591Z" transform="translate(-2.586 -6.515)" fill="#999b9d"/>
  <path id="Path_28" data-name="Path 28" d="M31.277,50.707a.949.949,0,0,1-.854-.522L28.9,47.109H21.082l-1.538,3.076a.949.949,0,0,1-1.7-.845l1.8-3.6a.949.949,0,0,1,.845-.522h9a.949.949,0,0,1,.845.522l1.8,3.6a.949.949,0,0,1-.864,1.367Z" transform="translate(-3.357 -6.804)" fill="#999b9d"/>
  <path id="Path_29" data-name="Path 29" d="M57,36.064a.949.949,0,0,1-.674-.275l-9.872-9.872A.949.949,0,0,1,47.8,24.578l9.882,9.882A.949.949,0,0,1,57,36.083Z" transform="translate(-4.802 -5.745)" fill="#999b9d"/>
  <path id="Path_30" data-name="Path 30" d="M41.5,40.264H7.329a.949.949,0,0,1-.949-.949V18.963A2.183,2.183,0,0,1,8.563,16.78H27.852a.949.949,0,0,1,.949.864,9.492,9.492,0,0,0,9.492,8.714h0a9.492,9.492,0,0,0,2.9-.456.949.949,0,0,1,1.234.911v12.5A.949.949,0,0,1,41.5,40.264Zm-33.223-1.9H40.552V28.038a12,12,0,0,1-2.269.218h0a11.391,11.391,0,0,1-11.258-9.578H8.563a.285.285,0,0,0-.285.285Z" transform="translate(-2.779 -5.361)" fill="#999b9d"/>
  <path id="Path_31" data-name="Path 31" d="M39.388,27.646h0a11.448,11.448,0,0,1,0-22.9h0a11.448,11.448,0,1,1,0,22.9Zm0-21a9.549,9.549,0,0,0,0,19.1h0a9.549,9.549,0,0,0,9.549-9.493h0a9.549,9.549,0,0,0-9.492-9.568Z" transform="translate(-3.873 -4.75)" fill="#627ef4"/>
  <path id="Path_32" data-name="Path 32" d="M31.532,17.035h0a.712.712,0,0,1-.712-.712A8.752,8.752,0,0,1,39.534,7.6a.721.721,0,0,1,.731.712.712.712,0,0,1-.731.712h0a7.328,7.328,0,0,0-7.319,7.3.712.712,0,0,1-.683.712Z" transform="translate(-4.02 -4.895)" fill="#627ef4"/>
</svg>
