<svg id="icon_research" xmlns="http://www.w3.org/2000/svg" width="48.411" height="48.449" viewBox="0 0 48.411 48.449">
  <path id="Path_19" data-name="Path 19" d="M51.961,54.583H16.839a.949.949,0,0,1-.949-.949V18.189a.949.949,0,0,1,.949-.949h35.4a.949.949,0,0,1,.949.949L52.91,53.634A.949.949,0,0,1,51.961,54.583Zm-34.172-1.9H51.031L51.3,19.138H17.788Z" transform="translate(-4.774 -6.134)" fill="#999b9d"/>
  <path id="Path_20" data-name="Path 20" d="M9.989,42.835H5.129a.949.949,0,0,1-.949-.949V6.489a.949.949,0,0,1,.949-.949H40.536a.949.949,0,0,1,.949.949v7.679a.949.949,0,1,1-1.9,0V7.438H6.078v33.5H9.989a.949.949,0,1,1,0,1.9Z" transform="translate(-4.18 -5.54)" fill="#627ef4"/>
</svg>
