<svg id="icon_present_and_evaluate" data-name="icon_present and evaluate" xmlns="http://www.w3.org/2000/svg" width="53.157" height="49.019" viewBox="0 0 53.157 49.019">
  <path id="Path_9" data-name="Path 9" d="M48.039,27.494a.949.949,0,0,1-.873-1.319l6.863-16.137a.949.949,0,0,1,1.775.674v.066L48.9,26.915A.949.949,0,0,1,48.039,27.494Z" transform="translate(-5.798 -4.883)" fill="#627ef4"/>
  <path id="Path_10" data-name="Path 10" d="M43.6,29.392h-.275L25.294,24a.951.951,0,0,1,.541-1.823L43.87,27.57a.959.959,0,1,1-.275,1.9Z" transform="translate(-4.657 -5.528)" fill="#627ef4"/>
  <path id="Path_11" data-name="Path 11" d="M13.71,43.476a1.072,1.072,0,0,1-.3,0L8.793,41.89A.949.949,0,0,1,9.4,40.115l3.8,1.262L20.848,24.14a.95.95,0,1,1,1.737.769l-8,18.054A.949.949,0,0,1,13.71,43.476Z" transform="translate(-3.828 -5.601)" fill="#627ef4"/>
  <path id="Path_12" data-name="Path 12" d="M6.77,44.2a3.18,3.18,0,1,1,3.18-3.18h0A3.18,3.18,0,0,1,6.77,44.2Zm0-4.461a1.272,1.272,0,1,0,.907.38A1.272,1.272,0,0,0,6.77,39.738Z" transform="translate(-3.59 -6.325)" fill="#627ef4"/>
  <path id="Path_13" data-name="Path 13" d="M23.03,25.3a3.18,3.18,0,1,1,3.18-3.18,3.18,3.18,0,0,1-3.18,3.18Zm0-4.461a1.253,1.253,0,1,1,0,.057Z" transform="translate(-4.415 -5.366)" fill="#627ef4"/>
  <path id="Path_14" data-name="Path 14" d="M46.92,32.88A3.18,3.18,0,1,1,50.1,29.7h0A3.18,3.18,0,0,1,46.92,32.88Zm0-4.461A1.281,1.281,0,1,0,48.2,29.7h0a1.281,1.281,0,0,0-1.281-1.272Z" transform="translate(-5.628 -5.751)" fill="#627ef4"/>
  <path id="Path_15" data-name="Path 15" d="M56.07,11a3.18,3.18,0,1,1,3.18-3.17h0A3.18,3.18,0,0,1,56.07,11Zm0-4.461a1.281,1.281,0,1,0,1.281,1.291h0A1.281,1.281,0,0,0,56.07,6.576Z" transform="translate(-6.093 -4.64)" fill="#627ef4"/>
  <path id="Path_16" data-name="Path 16" d="M52.538,55.346a3.8,3.8,0,0,1-2.667-1.1l-9.929-9.967a3.8,3.8,0,0,1,0-5.335,3.854,3.854,0,0,1,5.325,0l9.967,9.967a3.8,3.8,0,0,1,0,5.325h0A3.8,3.8,0,0,1,52.538,55.346Zm-9.967-15.6a1.9,1.9,0,0,0-1.823,1.965,1.842,1.842,0,0,0,.5,1.225l9.967,9.967a1.9,1.9,0,0,0,2.639,0h0a1.9,1.9,0,0,0,0-2.639L43.89,40.3A1.9,1.9,0,0,0,42.571,39.75Z" transform="translate(-5.38 -6.327)" fill="#999b9d"/>
  <path id="Path_17" data-name="Path 17" d="M22.58,38.08h0A16.659,16.659,0,0,1,5.94,21.487a16.365,16.365,0,0,1,4.8-11.695,16.564,16.564,0,0,1,23.408.066h0a16.507,16.507,0,0,1-11.5,28.221ZM22.39,6.9a14.647,14.647,0,0,0,.142,29.293h0A14.542,14.542,0,0,0,37.141,21.715v-.142A14.751,14.751,0,0,0,22.39,6.9Z" transform="translate(-3.709 -4.657)" fill="#999b9d"/>
  <path id="Path_18" data-name="Path 18" d="M40.334,40.334a.949.949,0,0,1-.674-.275l-5.373-5.373a.949.949,0,0,1,1.338-1.338L41.008,38.7a.954.954,0,0,1-.683,1.623Z" transform="translate(-5.137 -6.086)" fill="#999b9d"/>
</svg>
