<svg id="icon_deliver" xmlns="http://www.w3.org/2000/svg" width="49.589" height="38.207" viewBox="0 0 49.589 38.207">
  <g id="icon_backend">
    <path id="Path_42" data-name="Path 42" d="M46.352,40.529H6.688A1.688,1.688,0,0,1,5,38.841V10.688A1.688,1.688,0,0,1,6.688,9H46.352a1.688,1.688,0,0,1,1.688,1.688V38.841a1.688,1.688,0,0,1-1.688,1.688ZM6.688,10.688V38.841H46.352V10.688Z" transform="translate(-5 -9)" fill="#999b9d"/>
    <path id="Path_43" data-name="Path 43" d="M30.344,50.647A.844.844,0,0,1,29.5,49.8V45.2a.844.844,0,0,1,1.688,0v4.59a.844.844,0,0,1-.844.854Z" transform="translate(-8.824 -14.519)" fill="#999b9d"/>
    <path id="Path_44" data-name="Path 44" d="M34.086,51.5H24.9a.844.844,0,0,1,0-1.688h9.182a.844.844,0,0,1,0,1.688Z" transform="translate(-7.975 -15.37)" fill="#999b9d"/>
  </g>
  <g id="Group_1" data-name="Group 1" transform="translate(29.864 2.876)">
    <rect id="Rectangle_1" data-name="Rectangle 1" width="18.035" height="35.122" transform="translate(0.835 0.209)" fill="#fff"/>
    <g id="icon_mobile_IOS" transform="translate(0 0)">
      <path id="Path_37" data-name="Path 37" d="M47.947,56.111H32.018a1.9,1.9,0,0,1-1.9-1.9V22.678a1.9,1.9,0,0,1,1.9-1.9H47.947a1.9,1.9,0,0,1,1.9,1.9V54.212A1.9,1.9,0,0,1,47.947,56.111ZM32.018,22.678V54.212H47.947V22.678Z" transform="translate(-30.12 -20.78)" fill="#627ef4"/>
      <path id="Path_38" data-name="Path 38" d="M41.269,26.348h-1.12a.949.949,0,0,1,0-1.9H41.26a.949.949,0,0,1,0,1.9Z" transform="translate(-30.581 -20.966)" fill="#999b9d"/>
      <path id="Path_39" data-name="Path 39" d="M41.51,54.528H39.289a.949.949,0,0,1,0-1.9H41.52a.949.949,0,1,1,0,1.9Z" transform="translate(-30.537 -22.397)" fill="#999b9d"/>
      <path id="Path_40" data-name="Path 40" d="M48.9,50.9H31.069a.949.949,0,1,1,0-1.9H48.9a.949.949,0,0,1,0,1.9Z" transform="translate(-30.12 -22.213)" fill="#627ef4"/>
      <path id="Path_41" data-name="Path 41" d="M48.9,29.728H31.069a.949.949,0,1,1,0-1.9H48.9a.949.949,0,0,1,0,1.9Z" transform="translate(-30.12 -21.138)" fill="#627ef4"/>
    </g>
  </g>
</svg>
